<?xml version="1.0" encoding="UTF-8"?>
<svg id="Layer_2" data-name="Layer 2" xmlns="http://www.w3.org/2000/svg" viewBox="0 0 27 27">
  <g id="Favicons">
    <g id="Shortened">
      <rect width="27" height="27" style="fill: #fbfbfb;"/>
      <g>
        <polygon points="7.42 12.83 7.42 6.9 4.42 6.9 4.42 20.1 7.42 20.1 7.42 13.43 10.18 20.1 13.56 20.1 10.3 13.05 13.46 6.9 10.26 6.9 7.42 12.83" style="fill: #fff;"/>
        <path d="M14.88,20.1h3.01c.32-3.83,1.93-8.26,3.77-10.93v-2.27h-7.75l-.17,2.44h5c-1.67,2.65-3.47,6.88-3.87,10.76Z" style="fill: #fff;"/>
        <path d="M22.05,20.1c.91,0,1.61-.68,1.61-1.57s-.66-1.61-1.57-1.61-1.59.7-1.59,1.59.66,1.59,1.55,1.59Z" style="fill: #fff;"/>
      </g>
      <g>
        <polygon points="7.42 12.83 7.42 6.9 4.42 6.9 4.42 20.1 7.42 20.1 7.42 13.43 10.18 20.1 13.56 20.1 10.3 13.05 13.46 6.9 10.26 6.9 7.42 12.83" style="fill: #36454f;"/>
        <path d="M14.88,20.1h3.01c.32-3.83,1.93-8.26,3.77-10.93v-2.27h-7.75l-.17,2.44h5c-1.67,2.65-3.47,6.88-3.87,10.76Z" style="fill: #36454f;"/>
        <path d="M21.64,20.1c.91,0,1.61-.68,1.61-1.57s-.66-1.61-1.57-1.61-1.59.7-1.59,1.59.66,1.59,1.55,1.59Z" style="fill: #ec0b43;"/>
      </g>
    </g>
  </g>
</svg>